<svg width="28" height="28" viewBox="0 0 28 28" fill="none" xmlns="http://www.w3.org/2000/svg">
<path d="M12.1811 20L10.7266 14.9091" stroke="#151413" stroke-linecap="round"/>
<path d="M9.27237 4L6.36328 8.36364M19.4542 4L22.3633 8.36364" stroke="#151413" stroke-linecap="round"/>
<path d="M16.5469 20L18.0014 14.9091" stroke="#151413" stroke-linecap="round"/>
<path d="M3.45312 11.2729V11.2729C4.303 11.2729 5.03884 11.8632 5.22321 12.6929L7.1207 21.2316C7.4544 22.7332 7.62124 23.484 8.16965 23.9239C8.71806 24.3639 9.48719 24.3639 11.0254 24.3639H17.699C19.2372 24.3639 20.0064 24.3639 20.5548 23.9239C21.1032 23.484 21.27 22.7332 21.6037 21.2316L23.5012 12.6929C23.6856 11.8632 24.4214 11.2729 25.2713 11.2729V11.2729" stroke="#151413" stroke-linecap="round"/>
<path d="M25.2727 11.2729H3.45455C2.65122 11.2729 2 10.6216 2 9.81832C2 9.01499 2.65122 8.36377 3.45455 8.36377H25.2727C26.076 8.36377 26.7273 9.01499 26.7273 9.81832C26.7273 10.6216 26.076 11.2729 25.2727 11.2729Z" stroke="#151413" stroke-linecap="round"/>
</svg>
