<svg width="27" height="22" viewBox="0 0 27 22" fill="none" xmlns="http://www.w3.org/2000/svg">
<path d="M11.1811 17L9.72656 11.9091" stroke="#151413" stroke-linecap="round"/>
<path d="M8.27237 1L5.36328 5.36364M18.4542 1L21.3633 5.36364" stroke="#151413" stroke-linecap="round"/>
<path d="M15.5469 17L17.0014 11.9091" stroke="#151413" stroke-linecap="round"/>
<path d="M2.45312 8.27295V8.27295C3.303 8.27295 4.03884 8.86322 4.22321 9.69286L6.1207 18.2316C6.4544 19.7332 6.62124 20.484 7.16965 20.9239C7.71806 21.3639 8.48719 21.3639 10.0254 21.3639H16.699C18.2372 21.3639 19.0064 21.3639 19.5548 20.9239C20.1032 20.484 20.27 19.7332 20.6037 18.2316L22.5012 9.69286C22.6856 8.86322 23.4214 8.27295 24.2713 8.27295V8.27295" stroke="#151413" stroke-linecap="round"/>
<path d="M24.2727 8.27286H2.45455C1.65122 8.27286 1 7.62164 1 6.81832C1 6.01499 1.65122 5.36377 2.45455 5.36377H24.2727C25.076 5.36377 25.7273 6.01499 25.7273 6.81832C25.7273 7.62164 25.076 8.27286 24.2727 8.27286Z" stroke="#151413" stroke-linecap="round"/>
</svg>
