<svg width="24" height="24" viewBox="0 0 24 24" fill="none" xmlns="http://www.w3.org/2000/svg">
<path d="M10.3643 15.8184L9.27344 12.0002" stroke="white" stroke-linecap="round"/>
<path d="M8.18182 3.81836L6 7.09109M15.8182 3.81836L18 7.09109" stroke="white" stroke-linecap="round"/>
<path d="M13.6367 15.8184L14.7276 12.0002" stroke="white" stroke-linecap="round"/>
<path d="M3.81641 9.27295V9.27295C4.45381 9.27295 5.00569 9.71566 5.14397 10.3379L6.39307 15.9589C6.72677 17.4605 6.89362 18.2113 7.44202 18.6512C7.99043 19.0911 8.75956 19.0911 10.2978 19.0911H13.6986C15.2369 19.0911 16.006 19.0911 16.5544 18.6512C17.1028 18.2113 17.2697 17.4605 17.6034 15.9589L18.8525 10.3379C18.9908 9.71565 19.5426 9.27295 20.18 9.27295V9.27295" stroke="white" stroke-linecap="round"/>
<path d="M20.1811 9.27264H3.81747C3.21498 9.27264 2.72656 8.78422 2.72656 8.18173C2.72656 7.57924 3.21498 7.09082 3.81747 7.09082H20.1811C20.7836 7.09082 21.272 7.57924 21.272 8.18173C21.272 8.78422 20.7836 9.27264 20.1811 9.27264Z" stroke="white" stroke-linecap="round"/>
</svg>
