<svg width="36" height="36" viewBox="0 0 36 36" fill="none" xmlns="http://www.w3.org/2000/svg">
<path d="M15.7283 25L13.9102 18.6364" stroke="#151413" stroke-linecap="round"/>
<path d="M12.0934 5L8.45703 10.4545M24.8207 5L28.457 10.4545" stroke="#151413" stroke-linecap="round"/>
<path d="M21.1836 25L23.0018 18.6364" stroke="#151413" stroke-linecap="round"/>
<path d="M4.81641 14.0908V14.0908C5.01908 14.0908 5.12042 14.0908 5.21022 14.0989C6.01138 14.1713 6.6912 14.7167 6.93566 15.483C6.96306 15.5689 6.98504 15.6679 7.02901 15.8657L9.57489 27.3222C9.90859 28.8238 10.0754 29.5746 10.6238 30.0145C11.1722 30.4545 11.9414 30.4545 13.4796 30.4545H23.4259C24.9642 30.4545 25.7333 30.4545 26.2817 30.0145C26.8301 29.5746 26.997 28.8238 27.3307 27.3222L29.8765 15.8657C29.9205 15.6679 29.9425 15.5689 29.9699 15.483C30.2143 14.7167 30.8942 14.1713 31.6953 14.0989C31.7851 14.0908 31.8865 14.0908 32.0891 14.0908V14.0908" stroke="#151413" stroke-linecap="round"/>
<path d="M32.0909 14.091H4.81818C3.81403 14.091 3 13.2769 3 12.2728C3 11.2686 3.81403 10.4546 4.81818 10.4546H32.0909C33.0951 10.4546 33.9091 11.2686 33.9091 12.2728C33.9091 13.2769 33.0951 14.091 32.0909 14.091Z" stroke="#151413" stroke-linecap="round"/>
</svg>
