<svg width="24" height="24" viewBox="0 0 24 24" fill="none" xmlns="http://www.w3.org/2000/svg">
<g clip-path="url(#clip0_3349_4922)">
<path d="M22.0177 12.0023C22.0177 13.3278 21.78 14.5988 21.3434 15.7552H21.3379C20.8869 16.9608 20.2214 18.0408 19.3982 18.9409V18.9469C18.5745 19.8524 17.5915 20.5773 16.5053 21.0688V21.0743C15.4534 21.5543 14.2972 21.8161 13.0859 21.8161V2.18359C14.2967 2.18359 15.4534 2.45088 16.5053 2.93091C17.5915 3.4273 18.5745 4.15279 19.3982 5.0583H19.4032C20.2269 5.96326 20.8918 7.04386 21.3379 8.24393H21.3434C21.7795 9.40035 22.0177 10.6719 22.0177 12.0023Z" fill="#FFCE54"/>
<path d="M24.0029 12.0022C24.0029 12.1877 23.998 12.3677 23.9885 12.5477L22.0181 12.0022C22.0181 10.6718 21.7804 9.40028 21.3438 8.24385L23.3484 7.91602H23.3534C23.7747 9.19354 24.0029 10.5676 24.0029 12.0022Z" fill="#EDAB37"/>
<path d="M23.3517 7.91697H23.3467L21.342 8.24481H21.3371C20.891 7.04474 20.2261 5.96413 19.4023 5.05918L21.144 3.9082C22.1012 5.06408 22.8604 6.42289 23.3517 7.91697Z" fill="#F6BB42"/>
<path d="M17.7108 1.13672C19.0158 1.80766 20.1819 2.75681 21.1396 3.90778L19.3979 5.05875H19.3929C18.5692 4.15325 17.5862 3.42775 16.5 2.93136L17.7108 1.13672Z" fill="#EDAB37"/>
<path d="M21.3358 15.7559L22.9628 17.0923C22.353 18.5269 21.4891 19.8034 20.4371 20.8616L19.3906 18.9469V18.9415C20.2138 18.042 20.8793 16.9614 21.3303 15.7559H21.3358Z" fill="#EDAB37"/>
<path d="M19.4012 18.9473L20.4477 20.8619C19.3958 21.9147 18.1607 22.7438 16.8006 23.2893V23.2839L16.5078 21.0747V21.0692C17.595 20.5783 18.5775 19.8533 19.4012 18.9473Z" fill="#F6BB42"/>
<path d="M17.7156 1.13656L16.5048 2.93121C15.4529 2.45118 14.2967 2.18389 13.0859 2.18389V0.00195312C14.7433 0.00195312 16.3113 0.405612 17.7156 1.13656Z" fill="#F6BB42"/>
<path d="M16.7976 23.2829V23.2889C15.6414 23.7471 14.3905 23.998 13.0859 23.998V21.8161C14.2967 21.8161 15.4534 21.5542 16.5053 21.0742L16.7976 23.2829Z" fill="#EDAB37"/>
<path d="M22.0181 12.0029L23.9885 12.5484C23.9235 14.1685 23.5663 15.7068 22.9708 17.0923L21.3438 15.7559C21.7799 14.5994 22.0181 13.3285 22.0181 12.0029Z" fill="#F6BB42"/>
<path d="M10.9981 2.18262V21.8187C9.7784 21.8187 8.61364 21.5568 7.55386 21.0767V21.0713C6.45408 20.5802 5.46379 19.8491 4.63396 18.9434C3.80963 18.0383 3.13977 16.9574 2.68486 15.7571C2.24495 14.6005 2 13.3292 2 12.0034C2 10.6727 2.24495 9.40089 2.68486 8.24422C3.13977 7.04391 3.80963 5.96307 4.63396 5.05792C5.46379 4.15769 6.45408 3.42658 7.55386 2.93009C8.61364 2.44996 9.7784 2.18262 10.9981 2.18262Z" fill="#FFCE54"/>
<path d="M7.25237 0.715332L7.55281 2.93046C6.45303 3.42696 5.46274 4.15806 4.63291 5.0583L3.58312 3.13725L3.57812 3.13179C4.63791 2.08424 5.88265 1.25493 7.25237 0.715332Z" fill="#EDAB37"/>
<path d="M10.9947 0V2.1824C9.77498 2.1824 8.61022 2.44974 7.55044 2.92987L7.25 0.714735C8.42026 0.250976 9.68 0 10.9947 0Z" fill="#F6BB42"/>
<path d="M11 21.8182V24.0006C9.33032 24.0006 7.75065 23.5968 6.33594 22.8712L7.55569 21.0762C8.61547 21.5563 9.78023 21.8182 11 21.8182Z" fill="#EDAB37"/>
<path d="M3.58304 3.13675L4.63282 5.0578C3.80849 5.96295 3.13863 7.04378 2.68372 8.2441L1.03906 6.90738C1.65344 5.47246 2.52376 4.19575 3.57854 3.13184L3.58304 3.13675Z" fill="#F6BB42"/>
<path d="M7.55404 21.0712V21.0767L6.33429 22.8717C5.01956 22.2011 3.8453 21.2512 2.875 20.0946L4.63464 18.9434C5.46447 19.8491 6.45426 20.5802 7.55404 21.0712Z" fill="#F6BB42"/>
<path d="M4.63262 18.9432L2.87298 20.0944C1.90818 18.9377 1.14833 17.5792 0.648438 16.0843H0.653437L2.68352 15.7563C3.13793 16.9572 3.80779 18.038 4.63262 18.9432Z" fill="#EDAB37"/>
<path d="M2.68445 15.7564L0.654866 16.0837H0.649866C0.229953 14.8125 0 13.4376 0 12.0026C0 11.8171 0.00499884 11.6371 0.0149968 11.457L1.99959 12.0026C1.99959 13.3284 2.24454 14.5997 2.68445 15.7564Z" fill="#F6BB42"/>
<path d="M1.04041 6.90723L2.68508 8.24394C2.24517 9.40061 2.00022 10.6724 2.00022 12.0031L0.015625 11.4575C0.0806116 9.83218 0.440538 8.2985 1.04041 6.90723Z" fill="#EDAB37"/>
</g>
<defs>
<clipPath id="clip0_3349_4922">
<rect width="24" height="24" fill="white"/>
</clipPath>
</defs>
</svg>
