<svg width="24" height="24" viewBox="0 0 24 24" fill="none" xmlns="http://www.w3.org/2000/svg">
<g clip-path="url(#clip0_3349_4934)">
<path d="M20.4375 16.875H19.0312C18.6429 16.875 18.3281 16.5602 18.3281 16.1719V9.14062C18.3281 8.75231 18.6429 8.4375 19.0312 8.4375H21.375C22.5381 8.4375 23.4844 9.38377 23.4844 10.5469V13.8281C23.4844 15.5082 22.1175 16.875 20.4375 16.875ZM19.7344 15.4688H20.4375C21.3421 15.4688 22.0781 14.7328 22.0781 13.8281V10.5469C22.0781 10.1592 21.7627 9.84375 21.375 9.84375H19.7344V15.4688Z" fill="#965A1E"/>
<path d="M15.2812 21.0938H8.71875C6.2633 21.0938 4.26562 19.0961 4.26562 16.6406V8.20312C4.26562 7.81481 4.58044 7.5 4.96875 7.5H19.0312C19.4196 7.5 19.7344 7.81481 19.7344 8.20312V16.6406C19.7344 19.0961 17.7367 21.0938 15.2812 21.0938Z" fill="#C48443"/>
<path d="M19.0312 7.5H12V21.0938H15.2812C17.7367 21.0938 19.7344 19.0961 19.7344 16.6406V8.20312C19.7344 7.81481 19.4196 7.5 19.0312 7.5Z" fill="#AF6C23"/>
<path d="M15.5156 4.6875H9.42188C8.12953 4.6875 7.07812 3.63609 7.07812 2.34375C7.07812 1.05141 8.12953 0 9.42188 0H10.5938C10.9821 0 11.2969 0.314812 11.2969 0.703125C11.2969 1.3493 11.8226 1.875 12.4688 1.875H15.5156C16.291 1.875 16.9219 2.50584 16.9219 3.28125C16.9219 4.05666 16.291 4.6875 15.5156 4.6875Z" fill="#FEF2CC"/>
<path d="M15.5156 1.87501H12.4688C12.3022 1.87501 12.1436 1.83986 12 1.77686V4.68751H15.5156C16.291 4.68751 16.9219 4.05667 16.9219 3.28126C16.9219 2.50586 16.291 1.87501 15.5156 1.87501Z" fill="#FDE599"/>
<path d="M9.65625 13.5938C8.87958 13.5938 8.25 12.9642 8.25 12.1875V8.4375C8.25 7.91972 7.83028 7.5 7.3125 7.5H6.60938C5.8327 7.5 5.20312 6.87042 5.20312 6.09375C5.20312 5.31708 5.8327 4.6875 6.60938 4.6875H17.3906C18.1673 4.6875 18.7969 5.31708 18.7969 6.09375C18.7969 6.87042 18.1673 7.5 17.3906 7.5H12C11.4822 7.5 11.0625 7.91972 11.0625 8.4375V12.1875C11.0625 12.9642 10.4329 13.5938 9.65625 13.5938Z" fill="#FEF2CC"/>
<path d="M17.3906 4.6875H12V7.5H17.3906C18.1673 7.5 18.7969 6.87042 18.7969 6.09375C18.7969 5.31708 18.1673 4.6875 17.3906 4.6875Z" fill="#FDE599"/>
<path d="M20.3906 24H3.60938C1.61916 24 0 22.3808 0 20.3906C0 20.0023 0.314812 19.6875 0.703125 19.6875H23.2969C23.6852 19.6875 24 20.0023 24 20.3906C24 22.3808 22.3808 24 20.3906 24Z" fill="#FDE599"/>
<path d="M23.2969 19.6875H12V24H20.3906C22.3808 24 24 22.3808 24 20.3906C24 20.0023 23.6852 19.6875 23.2969 19.6875Z" fill="#FFC672"/>
</g>
<defs>
<clipPath id="clip0_3349_4934">
<rect width="24" height="24" fill="white"/>
</clipPath>
</defs>
</svg>
