<svg width="24" height="24" viewBox="0 0 24 24" fill="none" xmlns="http://www.w3.org/2000/svg">
<path d="M4.35444 4.68945C4.28705 4.68943 4.22037 4.7033 4.15856 4.73016C4.09675 4.75703 4.04113 4.79633 3.99517 4.84562C3.9492 4.89491 3.91388 4.95314 3.8914 5.01667C3.86892 5.08021 3.85976 5.14768 3.86449 5.21491L5.12724 22.8876C5.13599 23.0116 5.19141 23.1276 5.28234 23.2123C5.37327 23.297 5.49293 23.3441 5.61719 23.344H18.3808C18.5051 23.3441 18.6248 23.297 18.7157 23.2123C18.8066 23.1276 18.862 23.0116 18.8708 22.8876L20.1335 5.21491C20.1383 5.14768 20.1291 5.08021 20.1066 5.01667C20.0841 4.95314 20.0488 4.89491 20.0029 4.84562C19.9569 4.79633 19.9013 4.75703 19.8395 4.73016C19.7777 4.7033 19.711 4.68943 19.6436 4.68945H4.35444Z" fill="#FAC84D"/>
<path d="M5.61678 0.76123C5.52567 0.761387 5.4364 0.786895 5.35896 0.834896C5.28152 0.882898 5.21897 0.951489 5.17829 1.03302L4.19624 2.99714C4.15889 3.07193 4.14127 3.15501 4.14503 3.23852C4.14879 3.32203 4.17381 3.40322 4.21773 3.47435C4.26164 3.54549 4.32299 3.60423 4.39597 3.64501C4.46894 3.6858 4.55112 3.70728 4.63472 3.70741H19.362C19.4456 3.70728 19.5278 3.6858 19.6007 3.64501C19.6737 3.60423 19.7351 3.54549 19.779 3.47435C19.8229 3.40322 19.8479 3.32203 19.8517 3.23852C19.8554 3.15501 19.8378 3.07193 19.8005 2.99714L18.8184 1.03302C18.7777 0.951489 18.7152 0.882898 18.6378 0.834896C18.5603 0.786895 18.471 0.761387 18.3799 0.76123H5.61678Z" fill="#723F19"/>
<path d="M4.03906 7.63525L4.95184 20.3989H19.0501L19.9629 7.63525H4.03906Z" fill="#FF8A26"/>
<path d="M11.7748 10.5957C10.2145 10.7319 9.05469 12.255 9.05469 14.0177C9.05469 15.504 9.87925 16.821 11.073 17.2795C11.2573 17.0538 11.4809 16.7892 11.6531 16.617C11.6531 16.617 11.9447 16.3155 12.0874 15.8874C12.2301 15.4592 12.2735 14.9864 11.6531 14.3657C10.8012 13.5136 10.7573 12.5167 10.9828 11.8402C11.2084 11.1638 11.6531 10.728 11.6531 10.728C11.6912 10.6898 11.7332 10.64 11.7748 10.5957ZM12.9311 10.7567C12.7467 10.9824 12.5216 11.2478 12.3491 11.4202C12.3491 11.4202 12.0566 11.7208 11.9138 12.1489C11.7711 12.577 11.7287 13.0537 12.3491 13.6744C13.201 14.5265 13.2449 15.5234 13.0194 16.1999C12.7938 16.8763 12.3491 17.3111 12.3491 17.3111C12.3122 17.348 12.2715 17.3967 12.2312 17.4395C13.7896 17.3013 14.9475 15.7788 14.9475 14.0176C14.9475 12.532 14.124 11.2159 12.9311 10.7567Z" fill="#7D451B"/>
<path d="M3.1611 2.7251C3.09661 2.72533 3.0328 2.73826 2.97331 2.76315C2.91382 2.78805 2.85982 2.8244 2.81439 2.87017C2.76896 2.91594 2.73299 2.97017 2.70854 3.02984C2.68409 3.08951 2.67163 3.15346 2.67188 3.21794V5.18206C2.67233 5.31167 2.72402 5.43581 2.81567 5.52746C2.90732 5.61911 3.03149 5.67082 3.1611 5.67128H20.8345C20.899 5.67153 20.9629 5.65904 21.0226 5.63459C21.0823 5.61014 21.1366 5.57419 21.1823 5.52876C21.2281 5.48333 21.2645 5.42931 21.2893 5.36982C21.3142 5.31033 21.3272 5.24655 21.3274 5.18206V3.21794C21.3276 3.15315 21.3151 3.08896 21.2904 3.02905C21.2657 2.96914 21.2294 2.91468 21.1836 2.86887C21.1378 2.82305 21.0834 2.78676 21.0234 2.76208C20.9635 2.7374 20.8993 2.72485 20.8345 2.7251H3.1611Z" fill="#7D451B"/>
</svg>
