<svg width="24" height="24" viewBox="0 0 24 24" fill="none" xmlns="http://www.w3.org/2000/svg">
<g clip-path="url(#clip0_3349_4925)">
<path d="M18.9721 21.7519C22.0122 19.5767 23.9934 16.0164 23.9934 11.9933C23.9934 5.37094 18.6249 0.00244141 12.0026 0.00244141C5.38022 0.00244141 0.0117188 5.3709 0.0117188 11.9933C0.0117188 21.1654 9.90366 26.9067 17.8455 22.4667M12.0026 16.3979C9.57 16.3979 7.59801 14.4258 7.59801 11.9933C7.59801 9.56077 9.57005 7.58879 12.0026 7.58879C14.4351 7.58879 16.4071 9.56077 16.4071 11.9933C16.4071 14.4258 14.4352 16.3979 12.0026 16.3979Z" fill="#FFC373"/>
<path d="M14.3086 20.1219C14.6347 20.3337 15.0832 20.6363 15.625 20.5572C16.1198 20.5105 16.1937 20.406 18.1479 19.1363C18.3779 19.0005 19.0582 18.6893 19.8291 19.1901L19.8292 19.1902L20.982 19.9391C22.8554 17.8235 23.9934 15.0416 23.9934 11.9933C23.9934 5.37094 18.6249 0.00244141 12.0026 0.00244141C5.38022 0.00244141 0.0117188 5.37094 0.0117188 11.9933C0.0117188 15.0415 1.14975 17.8235 3.02325 19.9391L4.17595 19.1902L4.17605 19.1901C4.94686 18.6893 5.62725 19.0005 5.85736 19.1363C7.11117 19.951 6.68948 19.677 7.71225 20.3415C7.98384 20.5006 8.2912 20.5573 8.38209 20.5573C9.08691 20.6271 9.40936 20.3085 11.1306 19.1902C11.1894 19.1314 11.9809 18.6095 12.8745 19.19L12.8745 19.1902L13.1492 19.3868M12.0026 16.398C9.57005 16.398 7.59806 14.4259 7.59806 11.9934C7.59806 9.56086 9.57009 7.58888 12.0026 7.58888C14.4352 7.58888 16.4072 9.56086 16.4072 11.9934C16.4072 14.4259 14.4352 16.398 12.0026 16.398Z" fill="#FC3842"/>
<path d="M14.8688 15.337C16.7909 17.1386 19.353 18.2657 22.1777 18.3391C26.708 11.0928 22.3648 1.48881 13.8881 0.150391C12.1861 2.21411 11.2563 4.84502 11.3593 7.63623C14.0345 7.24398 16.408 9.31727 16.408 11.9934C16.4079 13.3314 15.8105 14.5292 14.8688 15.337Z" fill="#FC3842"/>
<path d="M9.1938 5.2123C9.58991 5.2123 9.91103 4.89118 9.91103 4.49507C9.91103 4.09895 9.58991 3.77783 9.1938 3.77783C8.79768 3.77783 8.47656 4.09895 8.47656 4.49507C8.47656 4.89118 8.79768 5.2123 9.1938 5.2123Z" fill="#2EBB4E"/>
<path d="M6.38525 16.7754C6.78139 16.7754 7.10253 16.4542 7.10253 16.0581C7.10253 15.662 6.78139 15.3408 6.38525 15.3408C5.98911 15.3408 5.66797 15.662 5.66797 16.0581C5.66797 16.4542 5.98911 16.7754 6.38525 16.7754Z" fill="#2EBB4E"/>
<path d="M19.7368 8.09902C20.1329 8.09902 20.454 7.7779 20.454 7.38178C20.454 6.98567 20.1329 6.66455 19.7368 6.66455C19.3406 6.66455 19.0195 6.98567 19.0195 7.38178C19.0195 7.7779 19.3406 8.09902 19.7368 8.09902Z" fill="#FFCC00"/>
<path d="M15.8579 17.9936C16.254 17.9936 16.5752 17.6725 16.5752 17.2764C16.5752 16.8802 16.254 16.5591 15.8579 16.5591C15.4618 16.5591 15.1406 16.8802 15.1406 17.2764C15.1406 17.6725 15.4618 17.9936 15.8579 17.9936Z" fill="#FFCC00"/>
<path d="M20.4555 14.1767C20.8516 14.1767 21.1727 13.8555 21.1727 13.4594C21.1727 13.0633 20.8516 12.7422 20.4555 12.7422C20.0594 12.7422 19.7383 13.0633 19.7383 13.4594C19.7383 13.8555 20.0594 14.1767 20.4555 14.1767Z" fill="#57BAE5"/>
<path d="M14.018 5.92949C14.4141 5.92949 14.7352 5.6084 14.7352 5.2123C14.7352 4.81621 14.4141 4.49512 14.018 4.49512C13.6219 4.49512 13.3008 4.81621 13.3008 5.2123C13.3008 5.6084 13.6219 5.92949 14.018 5.92949Z" fill="#57BAE5"/>
<path d="M4.6313 13.2719C5.02741 13.2719 5.34853 12.9508 5.34853 12.5546C5.34853 12.1585 5.02741 11.8374 4.6313 11.8374C4.23518 11.8374 3.91406 12.1585 3.91406 12.5546C3.91406 12.9508 4.23518 13.2719 4.6313 13.2719Z" fill="#57BAE5"/>
<path d="M17.3436 7.59353C17.624 7.59353 17.8513 7.36622 17.8513 7.08583C17.8513 6.80543 17.624 6.57812 17.3436 6.57812C17.0632 6.57812 16.8359 6.80543 16.8359 7.08583C16.8359 7.36622 17.0632 7.59353 17.3436 7.59353Z" fill="#ECF1F8"/>
<path d="M4.63275 7.16491C4.91317 7.16491 5.1405 6.93759 5.1405 6.65716C5.1405 6.37674 4.91317 6.14941 4.63275 6.14941C4.35233 6.14941 4.125 6.37674 4.125 6.65716C4.125 6.93759 4.35233 7.16491 4.63275 7.16491Z" fill="#FFC373"/>
<path d="M2.43744 14.2875C2.71786 14.2875 2.94519 14.0601 2.94519 13.7797C2.94519 13.4993 2.71786 13.272 2.43744 13.272C2.15701 13.272 1.92969 13.4993 1.92969 13.7797C1.92969 14.0601 2.15701 14.2875 2.43744 14.2875Z" fill="#F9D58C"/>
<path d="M11.496 3.92468C11.7765 3.92468 12.0038 3.69735 12.0038 3.41693C12.0038 3.13651 11.7765 2.90918 11.496 2.90918C11.2156 2.90918 10.9883 3.13651 10.9883 3.41693C10.9883 3.69735 11.2156 3.92468 11.496 3.92468Z" fill="#ECF1F8"/>
<path d="M18.3593 16.5653C18.6397 16.5653 18.8671 16.338 18.8671 16.0576C18.8671 15.7771 18.6397 15.5498 18.3593 15.5498C18.0789 15.5498 17.8516 15.7771 17.8516 16.0576C17.8516 16.338 18.0789 16.5653 18.3593 16.5653Z" fill="#F9D58C"/>
<path d="M7.96869 18.2919C8.24911 18.2919 8.47644 18.0645 8.47644 17.7841C8.47644 17.5037 8.24911 17.2764 7.96869 17.2764C7.68826 17.2764 7.46094 17.5037 7.46094 17.7841C7.46094 18.0645 7.68826 18.2919 7.96869 18.2919Z" fill="#ECF1F8"/>
<path d="M20.7851 10.7909C21.0655 10.7909 21.2928 10.5636 21.2928 10.2831C21.2928 10.0027 21.0655 9.77539 20.7851 9.77539C20.5047 9.77539 20.2773 10.0027 20.2773 10.2831C20.2773 10.5636 20.5047 10.7909 20.7851 10.7909Z" fill="#FFC373"/>
<path d="M18.0397 10.8029L17.3343 10.4716C17.1388 10.3798 17.0548 10.1469 17.1465 9.95146C17.2383 9.75599 17.4712 9.67199 17.6667 9.76368L18.3721 10.0949C18.5676 10.1867 18.6517 10.4197 18.5599 10.6151C18.4684 10.8099 18.2361 10.8948 18.0397 10.8029Z" fill="#57BAE5"/>
<path d="M3.87178 10.1295L3.16631 9.79823C2.9708 9.70641 2.88685 9.47353 2.97853 9.27806C3.07036 9.08259 3.30328 8.99873 3.4987 9.09028L4.20417 9.42155C4.39969 9.51333 4.48369 9.74625 4.39195 9.94167C4.30017 10.1369 4.06781 10.2213 3.87178 10.1295Z" fill="#FFCC00"/>
<path d="M15.6882 3.77158L14.9827 3.44036C14.7872 3.34854 14.7032 3.11566 14.795 2.92019C14.8867 2.72472 15.1197 2.64077 15.3151 2.73241L16.0206 3.06368C16.2161 3.1555 16.3001 3.38833 16.2083 3.5838C16.1166 3.77904 15.8841 3.8635 15.6882 3.77158Z" fill="#FFCC00"/>
<path d="M7.64525 7.18456L6.93978 6.85334C6.74432 6.76151 6.66022 6.52873 6.752 6.33321C6.84383 6.13779 7.07671 6.05388 7.27213 6.14548L7.9776 6.47665C8.17307 6.56848 8.25716 6.80131 8.16538 6.99677C8.07383 7.19191 7.8411 7.27638 7.64525 7.18456Z" fill="#FFCC00"/>
<path d="M16.8308 14.9634C16.7182 14.7791 16.7764 14.5385 16.9607 14.4259L17.6257 14.0197C17.81 13.9072 18.0506 13.9654 18.1632 14.1496C18.2757 14.3339 18.2176 14.5745 18.0333 14.6871L17.3683 15.0932C17.1843 15.2058 16.9435 15.1478 16.8308 14.9634Z" fill="#FFCC00"/>
<path d="M3.37557 15.9387C2.98318 15.9387 2.83445 15.4197 3.17139 15.214L3.83645 14.8078C4.02076 14.6953 4.26137 14.7534 4.37392 14.9377C4.48646 15.122 4.42829 15.3627 4.24407 15.4752L3.57901 15.8814C3.5154 15.9203 3.44509 15.9387 3.37557 15.9387Z" fill="#FFCC00"/>
</g>
<defs>
<clipPath id="clip0_3349_4925">
<rect width="24" height="24" fill="white"/>
</clipPath>
</defs>
</svg>
