<svg width="24" height="24" viewBox="0 0 24 24" fill="none" xmlns="http://www.w3.org/2000/svg">
<path d="M11.9994 11.0568C12.3549 11.0568 12.7599 11.0036 13.1817 10.903V0H10.8516V10.9114C11.2607 11.0064 11.6536 11.0568 11.9994 11.0568Z" fill="#FAB900"/>
<path d="M15.5098 9.8712V2.33008H13.1797V10.7184C13.9668 10.5311 14.8112 10.3605 15.5098 9.8712Z" fill="#FDEB08"/>
<path d="M16.54 8.88622C16.8616 8.43791 17.3206 8.11822 17.8379 7.97049V4.19434H15.5078V9.78657C15.9156 9.50136 16.2744 9.25717 16.54 8.88622Z" fill="#E09A0A"/>
<path d="M18.4834 7.87671H19.8158C19.9402 7.87671 20.0572 7.90001 20.1699 7.93357V5.59229H17.8398V7.97038C18.0472 7.9112 18.2625 7.87671 18.4834 7.87671Z" fill="#FDEB08"/>
<path d="M10.8496 10.7184V2.33008H8.51953V9.89404C9.22182 10.3787 10.0658 10.5362 10.8496 10.7184Z" fill="#FDEB08"/>
<path d="M7.45321 8.88622C7.7263 9.26696 8.09678 9.49624 8.5176 9.78657V4.19434H6.1875V7.98028C6.69127 8.1322 7.13865 8.44676 7.45321 8.88622Z" fill="#F8B700"/>
<path d="M4.18139 7.87671H5.51374C5.74629 7.87671 5.97277 7.91493 6.18947 7.98063V5.59229H3.85938V7.92192C3.96237 7.89489 4.06908 7.87671 4.18139 7.87671Z" fill="#FDEB08"/>
<path d="M18.4839 7.64355C17.7183 7.64355 16.9969 8.00985 16.5551 8.63524C15.5951 9.99369 13.4099 10.8241 11.9979 10.8241C10.5858 10.8241 8.40299 9.99416 7.44299 8.63524C7.0012 8.00985 6.2798 7.64355 5.51413 7.64355H4.18178C3.40726 7.64355 2.94543 8.32068 2.94543 9.10313V9.18468C2.93425 13.7475 3.69386 18.2795 5.19305 22.5888L5.2979 22.8903C5.51041 23.5008 6.2127 23.9999 6.85907 23.9999H17.1399C17.9657 23.9999 18.6703 23.4029 18.8059 22.5888C20.3261 18.2809 21.0866 13.7419 21.054 9.17396L21.0536 9.10313C21.0536 8.32068 20.5917 7.64355 19.8172 7.64355H18.4839Z" fill="#D32500"/>
<path d="M19.8171 10.1582H18.4847C17.719 10.1582 16.9976 10.5245 16.5559 11.1499C15.5959 12.5083 13.4107 13.3388 11.9987 13.3388C10.5866 13.3388 8.40378 12.5088 7.44378 11.1499C7.002 10.5245 6.2806 10.1582 5.51493 10.1582H4.18211C3.54926 10.1582 3.13031 10.6126 2.99609 11.2044C3.18017 15.0817 3.91555 18.9161 5.19338 22.5883C5.19338 22.5883 9.22631 21.6693 12.0159 21.6693C14.8018 21.6693 18.789 22.689 18.8058 22.5883C20.0971 18.9282 20.8344 15.1003 21.0091 11.2305C20.8815 10.6256 20.4592 10.1582 19.8171 10.1582Z" fill="#F55E30"/>
<path d="M12.2465 19.8057C14.0481 19.8057 15.5086 18.7625 15.5086 17.4756C15.5086 16.1887 14.0481 15.1455 12.2465 15.1455C10.4449 15.1455 8.98438 16.1887 8.98438 17.4756C8.98438 18.7625 10.4449 19.8057 12.2465 19.8057Z" fill="#FAC84D"/>
</svg>
